<svg xmlns="http://www.w3.org/2000/svg" viewBox="0 0 512 512">
  <rect width="512" height="512" rx="64" fill="#0f172a"/>
  <rect x="80" y="160" width="352" height="220" rx="24" fill="none" stroke="#38bdf8" stroke-width="16"/>
  <rect x="120" y="196" width="40" height="32" rx="6" fill="#38bdf8"/>
  <rect x="176" y="196" width="40" height="32" rx="6" fill="#38bdf8"/>
  <rect x="232" y="196" width="40" height="32" rx="6" fill="#38bdf8"/>
  <rect x="288" y="196" width="40" height="32" rx="6" fill="#38bdf8"/>
  <rect x="344" y="196" width="48" height="32" rx="6" fill="#38bdf8"/>
  <rect x="120" y="244" width="48" height="32" rx="6" fill="#38bdf8"/>
  <rect x="184" y="244" width="40" height="32" rx="6" fill="#38bdf8"/>
  <rect x="240" y="244" width="40" height="32" rx="6" fill="#38bdf8"/>
  <rect x="296" y="244" width="40" height="32" rx="6" fill="#38bdf8"/>
  <rect x="352" y="244" width="40" height="32" rx="6" fill="#38bdf8"/>
  <rect x="120" y="292" width="32" height="32" rx="6" fill="#38bdf8"/>
  <rect x="168" y="292" width="176" height="32" rx="6" fill="#38bdf8"/>
  <rect x="360" y="292" width="32" height="32" rx="6" fill="#38bdf8"/>
  <rect x="168" y="340" width="176" height="24" rx="6" fill="#38bdf8" opacity="0.5"/>
</svg>
